<svg xmlns="http://www.w3.org/2000/svg" viewBox="215.3 107.8 209.3 205.2"><linearGradient id="a" gradientUnits="userSpaceOnUse" x1="215.83" y1="210.419" x2="424.17" y2="210.419"><stop offset="0" stop-color="#333"/><stop offset="1" stop-color="#3D3D3D"/></linearGradient><path fill="url(#a)" d="M424.2 183.3c0 91.7-54.2 129.2-104.2 129.2-12 0-24.3-2.2-35.9-6.7-21-8.2-40.1-24.1-52.7-49-9.6-19-15.5-43.3-15.5-73.5 0-25.3 0-65.1 8.3-73.5 4.3-4.3 21 1 38.3 9.5 16.1 7.9 32.8 18.4 40.9 26.5h33.3c16.7-16.7 70.8-44.3 79.2-36 .7.7 1.3 1.6 1.9 2.7 1.1 2.2 2.1 5 2.9 8.5 3.5 15.9 3.5 43.4 3.5 62.3z"/><g><path opacity=".1" d="M305.3 177.9c-6-4.5-13.1-7.1-20.9-7.1-20.7 0-37.5 18.7-37.5 41.7 0 10 3.2 19.1 8.4 26.3.8 1.1 1.7 2.2 2.6 3.2 6.8 7.5 16.2 12.2 26.5 12.2 20.7 0 37.5-18.7 37.5-41.7.1-14.4-6.5-27.1-16.6-34.6zm0 34.6c0 6.9-2.3 13.2-6.1 17.7s-9 7.3-14.7 7.3c-7.1 0-13.3-4.2-17.1-10.7-2.4-4-3.7-9-3.7-14.3 0-6.9 2.3-13.2 6.1-17.7s9-7.3 14.7-7.3c3.2 0 6.2.8 8.9 2.4 7 4 11.9 12.6 11.9 22.6zm36.5 47.6c-3.9-1.2-8.8-1.8-13.6-1.8-10.9 0-21.9 3-21.9 9.1 0 3.9 1 7.5 2.8 10.7 3.7 6.7 10.9 11.2 19.1 11.2 12.1 0 21.9-9.8 21.9-21.9 0-3.4-3.4-5.8-8.3-7.3zm51-82.2c-6-4.5-13.1-7.1-20.9-7.1-20.7 0-37.5 18.7-37.5 41.7 0 10 3.2 19.1 8.4 26.3.8 1.1 1.7 2.2 2.6 3.2 6.8 7.5 16.2 12.2 26.5 12.2 20.7 0 37.5-18.7 37.5-41.7.1-14.4-6.5-27.1-16.6-34.6zm0 34.6c0 6.9-2.3 13.2-6.1 17.7s-9 7.3-14.7 7.3-11-2.8-14.7-7.3c-.9-1-1.7-2.2-2.4-3.4-2.4-4-3.7-9-3.7-14.3 0-6.9 2.3-13.2 6.1-17.7s9-7.3 14.7-7.3c3.2 0 6.2.8 8.9 2.4 7 4 11.9 12.6 11.9 22.6zm0-34.6c-6-4.5-13.1-7.1-20.9-7.1-20.7 0-37.5 18.7-37.5 41.7 0 10 3.2 19.1 8.4 26.3.8 1.1 1.7 2.2 2.6 3.2 6.8 7.5 16.2 12.2 26.5 12.2 20.7 0 37.5-18.7 37.5-41.7.1-14.4-6.5-27.1-16.6-34.6zm0 34.6c0 6.9-2.3 13.2-6.1 17.7s-9 7.3-14.7 7.3-11-2.8-14.7-7.3c-.9-1-1.7-2.2-2.4-3.4-2.4-4-3.7-9-3.7-14.3 0-6.9 2.3-13.2 6.1-17.7s9-7.3 14.7-7.3c3.2 0 6.2.8 8.9 2.4 7 4 11.9 12.6 11.9 22.6zm-51 47.6c-3.9-1.2-8.8-1.8-13.6-1.8-10.9 0-21.9 3-21.9 9.1 0 3.9 1 7.5 2.8 10.7 3.7 6.7 10.9 11.2 19.1 11.2 12.1 0 21.9-9.8 21.9-21.9 0-3.4-3.4-5.8-8.3-7.3zm-36.5-82.2c-6-4.5-13.1-7.1-20.9-7.1-20.7 0-37.5 18.7-37.5 41.7 0 10 3.2 19.1 8.4 26.3.8 1.1 1.7 2.2 2.6 3.2 6.8 7.5 16.2 12.2 26.5 12.2 20.7 0 37.5-18.7 37.5-41.7.1-14.4-6.5-27.1-16.6-34.6zm0 34.6c0 6.9-2.3 13.2-6.1 17.7s-9 7.3-14.7 7.3c-7.1 0-13.3-4.2-17.1-10.7-2.4-4-3.7-9-3.7-14.3 0-6.9 2.3-13.2 6.1-17.7s9-7.3 14.7-7.3c3.2 0 6.2.8 8.9 2.4 7 4 11.9 12.6 11.9 22.6zm112.4-100c-2.5.1-5.2.6-8.2 1.4-6.9 1.8-15.2 5.1-23.7 9.1-16.3 7.8-32.5 18.1-42 27h-31.3c-1.4-1.4-3-2.8-4.8-4.2h-4.5c-8-8-24.8-18.6-40.9-26.5-5.5-2.3-10.8-4.2-15.5-5.4-3.4-.9-6.5-1.4-9.4-1.4-2.9 0-5.8.5-8 2.8-3.3 3.3-4.7 7.9-5.9 13.5-1.2 5.6-2 12.4-2.6 19.5-1.1 14.4-1.1 30.8-1.1 43.4 0 25.6 4.2 47.2 11.4 65.1 12.6 24.9 31.8 40.8 52.7 49-8.5-4.5-16.5-10.5-23.6-18-19-20-32.2-51.1-32.2-96.1 0-12.6 0-28.8 1-42.8.5-7 1.3-13.4 2.4-18.3 1.1-4.9 2.8-8.4 3.7-9.4 0 0 .6-.3 2.2-.3 1.7 0 4.3.4 7.4 1.2 6.1 1.6 14 4.7 22.2 8.6 16.3 7.8 34 19 41.5 26.5.8.8 1.8 1.2 3 1.2h33.3c1.1 0 2.2-.4 3-1.2 7.5-7.5 25.2-18.8 41.5-26.5 8.2-3.9 16.1-7 22.2-8.6 3-.8 5.6-1.2 7.4-1.2.8 0 1.3.1 1.6.2-.7-3.5-1.6-6.4-2.8-8.6zm-24.9 65.4c-6-4.5-13.1-7.1-20.9-7.1-20.7 0-37.5 18.7-37.5 41.7 0 10 3.2 19.1 8.4 26.3.8 1.1 1.7 2.2 2.6 3.2 6.8 7.5 16.2 12.2 26.5 12.2 20.7 0 37.5-18.7 37.5-41.7.1-14.4-6.5-27.1-16.6-34.6zm0 34.6c0 6.9-2.3 13.2-6.1 17.7s-9 7.3-14.7 7.3-11-2.8-14.7-7.3c-.9-1-1.7-2.2-2.4-3.4-2.4-4-3.7-9-3.7-14.3 0-6.9 2.3-13.2 6.1-17.7s9-7.3 14.7-7.3c3.2 0 6.2.8 8.9 2.4 7 4 11.9 12.6 11.9 22.6zm-51 47.6c-3.9-1.2-8.8-1.8-13.6-1.8-10.9 0-21.9 3-21.9 9.1 0 3.9 1 7.5 2.8 10.7 3.7 6.7 10.9 11.2 19.1 11.2 12.1 0 21.9-9.8 21.9-21.9 0-3.4-3.4-5.8-8.3-7.3zm-36.5-82.2c-6-4.5-13.1-7.1-20.9-7.1-20.7 0-37.5 18.7-37.5 41.7 0 10 3.2 19.1 8.4 26.3.8 1.1 1.7 2.2 2.6 3.2 6.8 7.5 16.2 12.2 26.5 12.2 20.7 0 37.5-18.7 37.5-41.7.1-14.4-6.5-27.1-16.6-34.6zm0 34.6c0 6.9-2.3 13.2-6.1 17.7s-9 7.3-14.7 7.3c-7.1 0-13.3-4.2-17.1-10.7-2.4-4-3.7-9-3.7-14.3 0-6.9 2.3-13.2 6.1-17.7s9-7.3 14.7-7.3c3.2 0 6.2.8 8.9 2.4 7 4 11.9 12.6 11.9 22.6zm0-34.6c-6-4.5-13.1-7.1-20.9-7.1-20.7 0-37.5 18.7-37.5 41.7 0 10 3.2 19.1 8.4 26.3.8 1.1 1.7 2.2 2.6 3.2 6.8 7.5 16.2 12.2 26.5 12.2 20.7 0 37.5-18.7 37.5-41.7.1-14.4-6.5-27.1-16.6-34.6zm0 34.6c0 6.9-2.3 13.2-6.1 17.7s-9 7.3-14.7 7.3c-7.1 0-13.3-4.2-17.1-10.7-2.4-4-3.7-9-3.7-14.3 0-6.9 2.3-13.2 6.1-17.7s9-7.3 14.7-7.3c3.2 0 6.2.8 8.9 2.4 7 4 11.9 12.6 11.9 22.6zm36.5 47.6c-3.9-1.2-8.8-1.8-13.6-1.8-10.9 0-21.9 3-21.9 9.1 0 3.9 1 7.5 2.8 10.7 3.7 6.7 10.9 11.2 19.1 11.2 12.1 0 21.9-9.8 21.9-21.9 0-3.4-3.4-5.8-8.3-7.3zm51-82.2c-6-4.5-13.1-7.1-20.9-7.1-20.7 0-37.5 18.7-37.5 41.7 0 10 3.2 19.1 8.4 26.3.8 1.1 1.7 2.2 2.6 3.2 6.8 7.5 16.2 12.2 26.5 12.2 20.7 0 37.5-18.7 37.5-41.7.1-14.4-6.5-27.1-16.6-34.6zm0 34.6c0 6.9-2.3 13.2-6.1 17.7s-9 7.3-14.7 7.3-11-2.8-14.7-7.3c-.9-1-1.7-2.2-2.4-3.4-2.4-4-3.7-9-3.7-14.3 0-6.9 2.3-13.2 6.1-17.7s9-7.3 14.7-7.3c3.2 0 6.2.8 8.9 2.4 7 4 11.9 12.6 11.9 22.6zm-87.5-34.6c-6-4.5-13.1-7.1-20.9-7.1-20.7 0-37.5 18.7-37.5 41.7 0 10 3.2 19.1 8.4 26.3.8 1.1 1.7 2.2 2.6 3.2 6.8 7.5 16.2 12.2 26.5 12.2 20.7 0 37.5-18.7 37.5-41.7.1-14.4-6.5-27.1-16.6-34.6zm0 34.6c0 6.9-2.3 13.2-6.1 17.7s-9 7.3-14.7 7.3c-7.1 0-13.3-4.2-17.1-10.7-2.4-4-3.7-9-3.7-14.3 0-6.9 2.3-13.2 6.1-17.7s9-7.3 14.7-7.3c3.2 0 6.2.8 8.9 2.4 7 4 11.9 12.6 11.9 22.6zm87.5-34.6c-6-4.5-13.1-7.1-20.9-7.1-20.7 0-37.5 18.7-37.5 41.7 0 10 3.2 19.1 8.4 26.3.8 1.1 1.7 2.2 2.6 3.2 6.8 7.5 16.2 12.2 26.5 12.2 20.7 0 37.5-18.7 37.5-41.7.1-14.4-6.5-27.1-16.6-34.6zm0 34.6c0 6.9-2.3 13.2-6.1 17.7s-9 7.3-14.7 7.3-11-2.8-14.7-7.3c-.9-1-1.7-2.2-2.4-3.4-2.4-4-3.7-9-3.7-14.3 0-6.9 2.3-13.2 6.1-17.7s9-7.3 14.7-7.3c3.2 0 6.2.8 8.9 2.4 7 4 11.9 12.6 11.9 22.6zm-51 47.6c-3.9-1.2-8.8-1.8-13.6-1.8-10.9 0-21.9 3-21.9 9.1 0 3.9 1 7.5 2.8 10.7 3.7 6.7 10.9 11.2 19.1 11.2 12.1 0 21.9-9.8 21.9-21.9 0-3.4-3.4-5.8-8.3-7.3z"/><path fill="#F9F9F9" d="M341.9 259.1c0 12.1-9.8 21.9-21.9 21.9s-21.9-9.8-21.9-21.9c0-12.1 43.8-12.1 43.8 0zM305.3 177.9c-.8-1.1-1.7-2.2-2.6-3.2-6.8-7.5-16.2-12.2-26.5-12.2-20.7 0-37.5 18.7-37.5 41.7 0 14.4 6.6 27.1 16.6 34.6 6 4.5 13.2 7 20.9 7 10.3 0 19.7-4.7 26.5-12.2 6.8-7.5 11-18 11-29.5.1-9.9-3.1-19-8.4-26.2zm-43.8 43.9c-3.8-4.5-6.1-10.8-6.1-17.7 0-6.9 2.3-13.1 6.1-17.7 3.8-4.5 9-7.3 14.7-7.3 7.1 0 13.3 4.2 17.1 10.7 2.4 4 3.8 9 3.8 14.3 0 6.9-2.3 13.2-6.1 17.7s-9 7.3-14.7 7.3c-3.2 0-6.2-.8-8.9-2.4-2.2-1.2-4.2-2.8-5.9-4.9zM392.8 177.9c-6.9-9.4-17.4-15.4-29.1-15.4-20.7 0-37.5 18.7-37.5 41.7 0 14.4 6.6 27.1 16.6 34.6 6 4.5 13.2 7 20.9 7 10.3 0 19.7-4.7 26.5-12.2 6.8-7.5 11-18 11-29.5.1-9.9-3.1-19-8.4-26.2zM349 221.8c-3.8-4.5-6.1-10.8-6.1-17.7 0-6.9 2.3-13.1 6.1-17.7 3.8-4.5 9-7.3 14.7-7.3 7.1 0 13.3 4.2 17.1 10.7 2.4 4 3.8 9 3.8 14.3 0 6.9-2.3 13.2-6.1 17.7s-9 7.3-14.7 7.3c-3.2 0-6.2-.8-8.9-2.4-2.2-1.2-4.2-2.8-5.9-4.9z"/><path fill="none" stroke="#F9F9F9" stroke-linejoin="round" d="M424.2 183.3c0 91.7-54.2 129.2-104.2 129.2-12 0-24.3-2.2-35.9-6.7-21-8.2-40.1-24.1-52.7-49-9.6-19-15.5-43.3-15.5-73.5 0-25.3 0-65.1 8.3-73.5 4.3-4.3 21 1 38.3 9.5 16.1 7.9 32.8 18.4 40.9 26.5h33.3c16.7-16.7 70.8-44.3 79.2-36 .7.7 1.3 1.6 1.9 2.7 1.1 2.2 2.1 5 2.9 8.5 3.5 15.9 3.5 43.4 3.5 62.3z"/></g></svg>